<?xml version="1.0" encoding="UTF-8"?>
<svg width="64px" height="64px" viewBox="0 0 64 64" version="1.1" xmlns="http://www.w3.org/2000/svg" xmlns:xlink="http://www.w3.org/1999/xlink">
    <!-- Generator: Sketch 63.1 (92452) - https://sketch.com -->
    <title>icon_64_apple</title>
    <desc>Created with Sketch.</desc>
    <g id="组件" stroke="none" stroke-width="1" fill="none" fill-rule="evenodd">
        <g id="icon/64/apple">
            <g id="社交账号logo">
                <circle id="椭圆形" fill="#333333" cx="32" cy="32" r="32"></circle>
                <g id="编组-6" transform="translate(8.000000, 8.000000)" fill="#FFFFFF" fill-rule="nonzero">
                    <path d="M29.2768261,10.260672 C30.559545,8.66852649 31.2009045,7.07224551 31.2050158,5.21129619 L31.2050158,4.85564809 L31.2050158,4.5 C30.2882006,4.59097974 29.3713855,4.85564809 28.2695628,5.29814049 C27.2581883,5.83161263 26.4318213,6.45192907 25.7000137,7.15908981 C24.4131835,8.66439104 23.6813759,10.260672 23.6813759,12.0306416 L23.6813759,12.7419378 C25.88091,12.9197618 27.6240921,12.1216213 29.2768261,10.260672 Z M36.6154584,29.4160437 C34.9627244,27.9107425 34.1363574,25.9588134 34.1363574,23.742216 C34.041798,20.8184579 35.4190763,18.5150161 38.0790736,16.9187352 C36.520899,14.7931175 34.3172537,13.6393289 31.2913526,13.3746606 C30.1895299,13.2836808 28.906811,13.5483492 27.254077,14.0818213 C25.5108949,14.7021377 24.5036316,15.0577858 24.228176,15.0577858 C23.7677128,15.0577858 22.8508976,14.7931175 21.5681787,14.2596453 C20.2813485,13.6393289 19.0890777,13.3746606 18.1722626,13.3746606 C16.614088,13.3746606 15.1463615,13.817153 13.7690832,14.6152934 C12.3918049,15.4134339 11.2899822,16.4762428 10.5581746,17.8946997 C9.55091133,19.577825 9,21.7075781 9,24.0978641 C9,26.2234818 9.37001507,28.4400792 10.1018227,30.5656969 C10.8336303,32.6044702 11.7504454,34.4654196 12.8522681,35.9707208 C13.8636426,37.3891777 14.6900096,38.4519866 15.4218172,39.072303 C16.5236399,40.0482675 17.5309031,40.5776042 18.6327258,40.4907599 C19.3686446,40.4907599 20.2854598,40.2260916 21.4777306,39.6926194 C22.5795532,39.2501271 23.6813759,38.9854587 24.6886392,38.9854587 C25.7000137,38.9854587 26.707277,39.2501271 27.8090996,39.6926194 C29.0013704,40.1351118 30.012745,40.3997802 30.7445526,40.3997802 C31.8463752,40.3088004 32.9481979,39.866308 33.9554611,38.9813233 C34.3254762,38.7166549 34.69138,38.2741625 35.0572838,37.8316701 C35.4272989,37.3023334 35.8836508,36.7688613 36.4345621,36.0617005 C36.8004659,35.5282284 37.0759216,34.9988917 37.4418254,34.4654196 C37.8077292,33.9319474 38.0831849,33.311631 38.3586405,32.6044702 C38.4490887,32.3398019 38.6340962,32.0709981 38.7245443,31.8063298 C38.8149925,31.5416614 38.9095519,31.2769931 39,30.921345 C38.173633,30.6566766 37.347266,30.0363602 36.6154584,29.4160437 L36.6154584,29.4160437 Z" id="形状"></path>
                </g>
            </g>
        </g>
    </g>
</svg>